HIERARCHY
ROOT hip
{
	OFFSET 0.000000 0.000000 0.000000
	CHANNELS 6 Xposition Yposition Zposition Xrotation Zrotation Yrotation 
	JOINT abdomen
	{
		OFFSET 0.000000 3.422050 0.000000
		CHANNELS 3 Xrotation Zrotation Yrotation 
		JOINT chest
		{
			OFFSET 0.000000 8.486693 -0.684411
			CHANNELS 3 Xrotation Zrotation Yrotation 
			JOINT neck
			{
				OFFSET 0.000000 10.266162 -0.273764
				CHANNELS 3 Xrotation Zrotation Yrotation 
				JOINT head
				{
					OFFSET 0.000000 3.148285 0.000000
					CHANNELS 3 Xrotation Zrotation Yrotation 
					End Site
					{
						OFFSET 0.000000 3.148289 0.000000
					}
				}
			}
			JOINT lCollar
			{
				OFFSET 3.422053 6.707223 -0.821293
				CHANNELS 3 Yrotation Zrotation Xrotation 
				JOINT lShldr
				{
					OFFSET 3.285171 0.000000 0.000000
					CHANNELS 3 Zrotation Yrotation Xrotation 
					JOINT lForeArm
					{
						OFFSET 10.129278 0.000000 0.000000
						CHANNELS 3 Yrotation Zrotation Xrotation 
						JOINT lHand
						{
							OFFSET 8.486692 0.000000 0.000000
							CHANNELS 3 Zrotation Yrotation Xrotation 
							End Site
							{
								OFFSET 4.106464 0.000000 0.000000
							}
						}
					}
				}
			}
			JOINT rCollar
			{
				OFFSET -3.558935 6.707223 -0.821293
				CHANNELS 3 Yrotation Zrotation Xrotation 
				JOINT rShldr
				{
					OFFSET -3.148289 0.000000 0.000000
					CHANNELS 3 Zrotation Yrotation Xrotation 
					JOINT rForeArm
					{
						OFFSET -10.266159 0.000000 0.000000
						CHANNELS 3 Yrotation Zrotation Xrotation 
						JOINT rHand
						{
							OFFSET -8.349810 0.000000 0.000000
							CHANNELS 3 Zrotation Yrotation Xrotation 
							End Site
							{
								OFFSET -4.106464 0.000000 0.000000
							}
						}
					}
				}
			}
		}
	}
	JOINT lThigh
	{
		OFFSET 5.338403 -1.642589 1.368821
		CHANNELS 3 Xrotation Zrotation Yrotation 
		JOINT lShin
		{
			OFFSET -2.053232 -20.121670 0.000000
			CHANNELS 3 Xrotation Zrotation Yrotation 
			JOINT lFoot
			{
				OFFSET 0.000000 -19.300380 -1.231939
				CHANNELS 3 Xrotation Yrotation Zrotation 
				End Site
				{
					OFFSET 0.000000 -2.463878 4.653993
				}
			}
		}
	}
	JOINT rThigh
	{
		OFFSET -5.338403 -1.642589 1.368821
		CHANNELS 3 Xrotation Zrotation Yrotation 
		JOINT rShin
		{
			OFFSET 2.053232 -20.121670 0.000000
			CHANNELS 3 Xrotation Zrotation Yrotation 
			JOINT rFoot
			{
				OFFSET 0.000000 -19.300380 -1.231939
				CHANNELS 3 Xrotation Yrotation Zrotation 
				End Site
				{
					OFFSET 0.000000 -2.463878 4.653993
				}
			}
		}
	}
}
MOTION
Frames: 6
Frame Time: 0.033333
0.000000 43.528500 0.000000 0.000000 0.000000 0.000000 0.000000 0.000000 0.000000 0.000000 0.000000 0.000000 0.000000 0.000000 0.000000 0.000000 0.000000 0.000000 0.000000 0.000000 0.000000 0.000000 0.000000 0.000000 0.000000 0.000000 0.000000 0.000000 0.000000 0.000000 0.000000 0.000000 0.000000 0.000000 0.000000 0.000000 0.000000 0.000000 0.000000 0.000000 0.000000 0.000000 0.000000 0.000000 0.000000 0.000000 0.000000 0.000000 0.000000 0.000000 0.000000 0.000000 0.000000 0.000000 0.000000 0.000000 0.000000 0.000000 0.000000 0.000000 
1.312634 20.811214 17.022190 12.002546 0.000000 -180.000000 18.644096 -0.427454 -0.234962 26.807726 -0.200110 -0.646263 -15.001697 0.000000 0.000000 -2.428922 0.000000 0.000000 50.014503 -23.686584 3.360456 116.995773 -78.160126 -171.013000 -93.190308 -18.709175 -10.846339 -2.814961 28.173504 -71.448639 -66.669945 25.649038 12.387877 -135.750931 75.559341 172.977707 105.759148 20.674742 -14.548488 0.513185 -29.791817 -76.347633 -5.427434 11.554612 11.194125 111.281593 9.858887 -1.226800 46.111919 3.156661 -15.643680 -4.273515 -12.567847 -11.271800 112.395515 -10.032001 1.027919 43.865604 -2.578626 14.783806 
1.312634 20.811214 17.022190 11.999988 0.000000 -180.000000 19.718922 -0.427520 -0.235075 24.595722 -0.200346 -0.646215 -13.926883 0.000000 0.000000 -4.833539 0.000000 0.000000 50.317020 -23.221550 4.418720 116.995773 -78.160126 -171.013000 -93.190308 -18.709175 -10.846339 -3.045153 28.357763 -71.213516 -67.054352 24.915905 13.243030 -135.750931 75.559341 172.977707 105.759148 20.674744 -14.548490 0.779671 -29.866741 -76.194092 -5.427434 11.554612 11.194125 111.281593 9.858887 -1.226800 46.111919 3.156661 -15.643680 -4.273515 -12.567848 -11.271801 112.395515 -10.032002 1.027920 43.865604 -2.578626 14.783806 
1.312634 20.811214 17.022190 11.999988 0.000000 -180.000000 20.794788 -0.427583 -0.235189 22.374485 -0.200582 -0.646158 -12.851026 0.000000 0.000000 -7.250054 0.000000 0.000000 50.609406 -22.751020 5.471687 116.995773 -78.160126 -171.013000 -93.190308 -18.709173 -10.846338 -3.274923 28.542875 -70.978767 -67.424866 24.177004 14.088584 -135.750900 75.559326 172.977722 105.759155 20.674740 -14.548490 1.046158 -29.942282 -76.040802 -5.427434 11.554612 11.194125 111.281593 9.858886 -1.226800 46.111919 3.156661 -15.643678 -4.273515 -12.567847 -11.271800 112.395508 -10.032001 1.027919 43.865604 -2.578625 14.783806 
1.312634 20.811214 17.022190 11.999988 0.000000 -180.000000 21.871513 -0.427645 -0.235305 20.145641 -0.200816 -0.646092 -11.774312 0.000000 0.000000 -9.676387 0.000000 0.000000 50.891636 -22.275253 6.519292 116.995773 -78.160126 -171.013000 -93.190308 -18.709175 -10.846339 -3.504260 28.728830 -70.744423 -67.781586 23.432642 14.924741 -135.750931 75.559341 172.977707 105.759148 20.674742 -14.548488 1.312637 -30.018454 -75.887794 -5.427434 11.554612 11.194125 111.281593 9.858887 -1.226800 46.111919 3.156661 -15.643680 -4.273515 -12.567847 -11.271800 112.395515 -10.032001 1.027919 43.865604 -2.578626 14.783806 
1.312634 20.811214 17.022190 11.999988 0.000000 -180.000000 22.948910 -0.427705 -0.235422 17.910845 -0.201047 -0.646016 -10.696935 0.000000 0.000000 -12.110414 0.000000 0.000000 51.163647 -21.794506 7.561478 116.995773 -78.160126 -171.013000 -93.190308 -18.709175 -10.846339 -3.733165 28.915640 -70.510498 -68.124725 22.683170 15.751735 -135.750946 75.559357 172.977707 105.759148 20.674744 -14.548488 1.579108 -30.095245 -75.735069 -5.427434 11.554612 11.194125 111.281593 9.858887 -1.226800 46.111919 3.156660 -15.643680 -4.273515 -12.567847 -11.271800 112.395531 -10.032001 1.027919 43.865604 -2.578626 14.783806 
